<mxfile host="Electron" agent="Mozilla/5.0 (Windows NT 10.0; Win64; x64) AppleWebKit/537.36 (KHTML, like Gecko) draw.io/24.7.17 Chrome/128.0.6613.36 Electron/32.0.1 Safari/537.36" version="24.7.17">
  <diagram name="Página-1" id="wHq8xfj4PmLTg6BUVUXc">
    <mxGraphModel dx="1434" dy="836" grid="1" gridSize="10" guides="1" tooltips="1" connect="1" arrows="1" fold="1" page="1" pageScale="1" pageWidth="827" pageHeight="1169" math="0" shadow="0">
      <root>
        <mxCell id="0" />
        <mxCell id="1" parent="0" />
        <mxCell id="s4a6HTi4EsbIHHrGRRqp-18" value="" style="edgeStyle=orthogonalEdgeStyle;rounded=0;orthogonalLoop=1;jettySize=auto;html=1;endArrow=none;endFill=0;" parent="1" source="s4a6HTi4EsbIHHrGRRqp-1" target="s4a6HTi4EsbIHHrGRRqp-4" edge="1">
          <mxGeometry relative="1" as="geometry" />
        </mxCell>
        <mxCell id="s4a6HTi4EsbIHHrGRRqp-1" value="Profesores" style="rounded=0;whiteSpace=wrap;html=1;fillColor=#008a00;fontColor=#ffffff;strokeColor=#005700;" parent="1" vertex="1">
          <mxGeometry x="160" y="120" width="120" height="60" as="geometry" />
        </mxCell>
        <mxCell id="s4a6HTi4EsbIHHrGRRqp-20" value="" style="edgeStyle=orthogonalEdgeStyle;rounded=0;orthogonalLoop=1;jettySize=auto;html=1;endArrow=none;endFill=0;" parent="1" source="s4a6HTi4EsbIHHrGRRqp-2" target="s4a6HTi4EsbIHHrGRRqp-5" edge="1">
          <mxGeometry relative="1" as="geometry" />
        </mxCell>
        <mxCell id="s4a6HTi4EsbIHHrGRRqp-24" value="" style="edgeStyle=orthogonalEdgeStyle;rounded=0;orthogonalLoop=1;jettySize=auto;html=1;endArrow=none;endFill=0;" parent="1" source="s4a6HTi4EsbIHHrGRRqp-2" edge="1">
          <mxGeometry relative="1" as="geometry">
            <mxPoint x="440" y="390" as="targetPoint" />
          </mxGeometry>
        </mxCell>
        <mxCell id="s4a6HTi4EsbIHHrGRRqp-2" value="Alumnos" style="rounded=0;whiteSpace=wrap;html=1;fillColor=#008a00;fontColor=#ffffff;strokeColor=#005700;" parent="1" vertex="1">
          <mxGeometry x="540" y="360" width="120" height="60" as="geometry" />
        </mxCell>
        <mxCell id="s4a6HTi4EsbIHHrGRRqp-3" value="Modulos" style="rounded=0;whiteSpace=wrap;html=1;fillColor=#008a00;fontColor=#ffffff;strokeColor=#005700;" parent="1" vertex="1">
          <mxGeometry x="540" y="120" width="120" height="60" as="geometry" />
        </mxCell>
        <mxCell id="s4a6HTi4EsbIHHrGRRqp-19" value="" style="edgeStyle=orthogonalEdgeStyle;rounded=0;orthogonalLoop=1;jettySize=auto;html=1;endArrow=none;endFill=0;" parent="1" source="s4a6HTi4EsbIHHrGRRqp-4" target="s4a6HTi4EsbIHHrGRRqp-3" edge="1">
          <mxGeometry relative="1" as="geometry" />
        </mxCell>
        <mxCell id="s4a6HTi4EsbIHHrGRRqp-4" value="Enseñan" style="rhombus;whiteSpace=wrap;html=1;fillColor=#1ba1e2;fontColor=#ffffff;strokeColor=#006EAF;" parent="1" vertex="1">
          <mxGeometry x="350" y="130" width="110" height="40" as="geometry" />
        </mxCell>
        <mxCell id="s4a6HTi4EsbIHHrGRRqp-21" value="" style="edgeStyle=orthogonalEdgeStyle;rounded=0;orthogonalLoop=1;jettySize=auto;html=1;endArrow=none;endFill=0;" parent="1" source="s4a6HTi4EsbIHHrGRRqp-5" target="s4a6HTi4EsbIHHrGRRqp-3" edge="1">
          <mxGeometry relative="1" as="geometry" />
        </mxCell>
        <mxCell id="s4a6HTi4EsbIHHrGRRqp-5" value="Inscritos" style="rhombus;whiteSpace=wrap;html=1;fillColor=#1ba1e2;fontColor=#ffffff;strokeColor=#006EAF;" parent="1" vertex="1">
          <mxGeometry x="545" y="243" width="110" height="40" as="geometry" />
        </mxCell>
        <mxCell id="s4a6HTi4EsbIHHrGRRqp-30" value="" style="edgeStyle=orthogonalEdgeStyle;rounded=0;orthogonalLoop=1;jettySize=auto;html=1;endArrow=none;endFill=0;" parent="1" source="s4a6HTi4EsbIHHrGRRqp-6" target="s4a6HTi4EsbIHHrGRRqp-1" edge="1">
          <mxGeometry relative="1" as="geometry" />
        </mxCell>
        <mxCell id="s4a6HTi4EsbIHHrGRRqp-6" value="&lt;u&gt;DNI&lt;/u&gt;" style="ellipse;whiteSpace=wrap;html=1;fillColor=#647687;fontColor=#ffffff;strokeColor=#314354;" parent="1" vertex="1">
          <mxGeometry x="160" y="20" width="70" height="40" as="geometry" />
        </mxCell>
        <mxCell id="s4a6HTi4EsbIHHrGRRqp-29" value="" style="edgeStyle=orthogonalEdgeStyle;rounded=0;orthogonalLoop=1;jettySize=auto;html=1;endArrow=none;endFill=0;" parent="1" source="s4a6HTi4EsbIHHrGRRqp-7" target="s4a6HTi4EsbIHHrGRRqp-1" edge="1">
          <mxGeometry relative="1" as="geometry" />
        </mxCell>
        <mxCell id="s4a6HTi4EsbIHHrGRRqp-7" value="Direccion" style="ellipse;whiteSpace=wrap;html=1;fillColor=#647687;fontColor=#ffffff;strokeColor=#314354;" parent="1" vertex="1">
          <mxGeometry x="240" y="20" width="70" height="40" as="geometry" />
        </mxCell>
        <mxCell id="s4a6HTi4EsbIHHrGRRqp-31" style="edgeStyle=orthogonalEdgeStyle;rounded=0;orthogonalLoop=1;jettySize=auto;html=1;exitX=1;exitY=1;exitDx=0;exitDy=0;entryX=0;entryY=0;entryDx=0;entryDy=0;endArrow=none;endFill=0;" parent="1" source="s4a6HTi4EsbIHHrGRRqp-9" target="s4a6HTi4EsbIHHrGRRqp-1" edge="1">
          <mxGeometry relative="1" as="geometry" />
        </mxCell>
        <mxCell id="s4a6HTi4EsbIHHrGRRqp-9" value="Nombre" style="ellipse;whiteSpace=wrap;html=1;fillColor=#647687;fontColor=#ffffff;strokeColor=#314354;" parent="1" vertex="1">
          <mxGeometry x="70" y="20" width="70" height="40" as="geometry" />
        </mxCell>
        <mxCell id="s4a6HTi4EsbIHHrGRRqp-32" style="edgeStyle=orthogonalEdgeStyle;rounded=0;orthogonalLoop=1;jettySize=auto;html=1;exitX=0.5;exitY=1;exitDx=0;exitDy=0;entryX=0;entryY=0.5;entryDx=0;entryDy=0;endArrow=none;endFill=0;" parent="1" source="s4a6HTi4EsbIHHrGRRqp-10" target="s4a6HTi4EsbIHHrGRRqp-1" edge="1">
          <mxGeometry relative="1" as="geometry" />
        </mxCell>
        <mxCell id="s4a6HTi4EsbIHHrGRRqp-10" value="Telefono" style="ellipse;whiteSpace=wrap;html=1;fillColor=#647687;fontColor=#ffffff;strokeColor=#314354;" parent="1" vertex="1">
          <mxGeometry x="70" y="100" width="70" height="40" as="geometry" />
        </mxCell>
        <mxCell id="s4a6HTi4EsbIHHrGRRqp-23" value="" style="edgeStyle=orthogonalEdgeStyle;rounded=0;orthogonalLoop=1;jettySize=auto;html=1;endArrow=none;endFill=0;" parent="1" source="s4a6HTi4EsbIHHrGRRqp-11" target="s4a6HTi4EsbIHHrGRRqp-3" edge="1">
          <mxGeometry relative="1" as="geometry" />
        </mxCell>
        <mxCell id="s4a6HTi4EsbIHHrGRRqp-11" value="&lt;u&gt;Codigo&lt;/u&gt;" style="ellipse;whiteSpace=wrap;html=1;fillColor=#647687;fontColor=#ffffff;strokeColor=#314354;" parent="1" vertex="1">
          <mxGeometry x="565" y="20" width="70" height="40" as="geometry" />
        </mxCell>
        <mxCell id="s4a6HTi4EsbIHHrGRRqp-22" value="" style="edgeStyle=orthogonalEdgeStyle;rounded=0;orthogonalLoop=1;jettySize=auto;html=1;endArrow=none;endFill=0;" parent="1" source="s4a6HTi4EsbIHHrGRRqp-12" target="s4a6HTi4EsbIHHrGRRqp-3" edge="1">
          <mxGeometry relative="1" as="geometry" />
        </mxCell>
        <mxCell id="s4a6HTi4EsbIHHrGRRqp-12" value="Nombre" style="ellipse;whiteSpace=wrap;html=1;fillColor=#647687;fontColor=#ffffff;strokeColor=#314354;" parent="1" vertex="1">
          <mxGeometry x="700" y="130" width="70" height="40" as="geometry" />
        </mxCell>
        <mxCell id="s4a6HTi4EsbIHHrGRRqp-26" value="" style="edgeStyle=orthogonalEdgeStyle;rounded=0;orthogonalLoop=1;jettySize=auto;html=1;endArrow=none;endFill=0;" parent="1" source="s4a6HTi4EsbIHHrGRRqp-13" target="s4a6HTi4EsbIHHrGRRqp-2" edge="1">
          <mxGeometry relative="1" as="geometry" />
        </mxCell>
        <mxCell id="s4a6HTi4EsbIHHrGRRqp-13" value="&lt;u&gt;Nº.Expediente&lt;/u&gt;" style="ellipse;whiteSpace=wrap;html=1;fillColor=#647687;fontColor=#ffffff;strokeColor=#314354;" parent="1" vertex="1">
          <mxGeometry x="700" y="370" width="90" height="40" as="geometry" />
        </mxCell>
        <mxCell id="s4a6HTi4EsbIHHrGRRqp-27" style="edgeStyle=orthogonalEdgeStyle;rounded=0;orthogonalLoop=1;jettySize=auto;html=1;exitX=0;exitY=0;exitDx=0;exitDy=0;entryX=1;entryY=1;entryDx=0;entryDy=0;endArrow=none;endFill=0;" parent="1" source="s4a6HTi4EsbIHHrGRRqp-14" target="s4a6HTi4EsbIHHrGRRqp-2" edge="1">
          <mxGeometry relative="1" as="geometry" />
        </mxCell>
        <mxCell id="s4a6HTi4EsbIHHrGRRqp-14" value="Fecha de nacimiento" style="ellipse;whiteSpace=wrap;html=1;fillColor=#647687;fontColor=#ffffff;strokeColor=#314354;" parent="1" vertex="1">
          <mxGeometry x="700" y="450" width="70" height="40" as="geometry" />
        </mxCell>
        <mxCell id="s4a6HTi4EsbIHHrGRRqp-25" value="" style="edgeStyle=orthogonalEdgeStyle;rounded=0;orthogonalLoop=1;jettySize=auto;html=1;endArrow=none;endFill=0;" parent="1" source="s4a6HTi4EsbIHHrGRRqp-15" target="s4a6HTi4EsbIHHrGRRqp-2" edge="1">
          <mxGeometry relative="1" as="geometry" />
        </mxCell>
        <mxCell id="s4a6HTi4EsbIHHrGRRqp-15" value="Apellidos" style="ellipse;whiteSpace=wrap;html=1;fillColor=#647687;fontColor=#ffffff;strokeColor=#314354;" parent="1" vertex="1">
          <mxGeometry x="590" y="450" width="70" height="40" as="geometry" />
        </mxCell>
        <mxCell id="s4a6HTi4EsbIHHrGRRqp-35" style="edgeStyle=orthogonalEdgeStyle;rounded=0;orthogonalLoop=1;jettySize=auto;html=1;exitX=0;exitY=0.5;exitDx=0;exitDy=0;entryX=1;entryY=0;entryDx=0;entryDy=0;endArrow=none;endFill=0;" parent="1" source="s4a6HTi4EsbIHHrGRRqp-16" target="s4a6HTi4EsbIHHrGRRqp-2" edge="1">
          <mxGeometry relative="1" as="geometry" />
        </mxCell>
        <mxCell id="s4a6HTi4EsbIHHrGRRqp-16" value="Nombre" style="ellipse;whiteSpace=wrap;html=1;fillColor=#647687;fontColor=#ffffff;strokeColor=#314354;" parent="1" vertex="1">
          <mxGeometry x="710" y="300" width="70" height="40" as="geometry" />
        </mxCell>
        <mxCell id="s4a6HTi4EsbIHHrGRRqp-34" value="" style="endArrow=none;html=1;rounded=0;endFill=0;" parent="1" edge="1">
          <mxGeometry width="50" height="50" relative="1" as="geometry">
            <mxPoint x="379" y="460" as="sourcePoint" />
            <mxPoint x="560" y="460" as="targetPoint" />
          </mxGeometry>
        </mxCell>
        <mxCell id="s4a6HTi4EsbIHHrGRRqp-36" value="" style="endArrow=none;html=1;rounded=0;endFill=0;" parent="1" edge="1">
          <mxGeometry width="50" height="50" relative="1" as="geometry">
            <mxPoint x="560" y="460" as="sourcePoint" />
            <mxPoint x="560" y="420" as="targetPoint" />
          </mxGeometry>
        </mxCell>
        <mxCell id="7lmTvZNiE0_DD7TIV-hu-1" value="(1,n)" style="text;html=1;align=center;verticalAlign=middle;whiteSpace=wrap;rounded=0;" parent="1" vertex="1">
          <mxGeometry x="280" y="150" width="60" height="30" as="geometry" />
        </mxCell>
        <mxCell id="7lmTvZNiE0_DD7TIV-hu-2" value="(1,n)" style="text;html=1;align=center;verticalAlign=middle;whiteSpace=wrap;rounded=0;" parent="1" vertex="1">
          <mxGeometry x="480" y="120" width="60" height="30" as="geometry" />
        </mxCell>
        <mxCell id="7lmTvZNiE0_DD7TIV-hu-3" value="(1,1)" style="text;html=1;align=center;verticalAlign=middle;whiteSpace=wrap;rounded=0;" parent="1" vertex="1">
          <mxGeometry x="600" y="180" width="60" height="30" as="geometry" />
        </mxCell>
        <mxCell id="7lmTvZNiE0_DD7TIV-hu-4" value="(1,n)" style="text;html=1;align=center;verticalAlign=middle;whiteSpace=wrap;rounded=0;" parent="1" vertex="1">
          <mxGeometry x="540" y="330" width="60" height="30" as="geometry" />
        </mxCell>
        <mxCell id="7lmTvZNiE0_DD7TIV-hu-7" value="(n,1)" style="text;html=1;align=center;verticalAlign=middle;whiteSpace=wrap;rounded=0;" parent="1" vertex="1">
          <mxGeometry x="375" y="100" width="60" height="30" as="geometry" />
        </mxCell>
        <mxCell id="7lmTvZNiE0_DD7TIV-hu-8" value="(n,1)" style="text;html=1;align=center;verticalAlign=middle;whiteSpace=wrap;rounded=0;" parent="1" vertex="1">
          <mxGeometry x="657" y="248" width="60" height="30" as="geometry" />
        </mxCell>
        <mxCell id="o9vpoyiK9Hiexq1uJ1zK-1" value="Es delegado de" style="rhombus;whiteSpace=wrap;html=1;fillColor=#1ba1e2;fontColor=#ffffff;strokeColor=#006EAF;" parent="1" vertex="1">
          <mxGeometry x="320" y="370" width="120" height="40" as="geometry" />
        </mxCell>
        <mxCell id="o9vpoyiK9Hiexq1uJ1zK-2" value="" style="endArrow=none;html=1;rounded=0;entryX=0.5;entryY=1;entryDx=0;entryDy=0;" parent="1" target="o9vpoyiK9Hiexq1uJ1zK-1" edge="1">
          <mxGeometry width="50" height="50" relative="1" as="geometry">
            <mxPoint x="380" y="460" as="sourcePoint" />
            <mxPoint x="440" y="400" as="targetPoint" />
          </mxGeometry>
        </mxCell>
      </root>
    </mxGraphModel>
  </diagram>
</mxfile>
